<svg width="24" height="24" viewBox="0 0 24 24" fill="none" xmlns="http://www.w3.org/2000/svg">
<g clip-path="url(#clip0_209_1079)">
<path d="M11 6H13C14.379 6 15.5 4.879 15.5 3.5V2.5C15.5 1.121 14.379 0 13 0H11C9.622 0 8.5 1.121 8.5 2.5V3.5C8.5 4.879 9.622 6 11 6ZM10.5 2.5C10.5 2.225 10.724 2 11 2H13C13.275 2 13.5 2.225 13.5 2.5V3.5C13.5 3.775 13.275 4 13 4H11C10.724 4 10.5 3.775 10.5 3.5V2.5ZM13 18H11C9.622 18 8.5 19.121 8.5 20.5V21.5C8.5 22.879 9.622 24 11 24H13C14.379 24 15.5 22.879 15.5 21.5V20.5C15.5 19.121 14.379 18 13 18ZM13.5 21.5C13.5 21.775 13.275 22 13 22H11C10.724 22 10.5 21.775 10.5 21.5V20.5C10.5 20.225 10.724 20 11 20H13C13.275 20 13.5 20.225 13.5 20.5V21.5ZM21.5 18H19.5C18.121 18 17 19.121 17 20.5V21.5C17 22.879 18.121 24 19.5 24H21.5C22.879 24 24 22.879 24 21.5V20.5C24 19.121 22.879 18 21.5 18ZM22 21.5C22 21.775 21.775 22 21.5 22H19.5C19.225 22 19 21.775 19 21.5V20.5C19 20.225 19.225 20 19.5 20H21.5C21.775 20 22 20.225 22 20.5V21.5ZM4.5 18H2.5C1.122 18 0 19.121 0 20.5V21.5C0 22.879 1.122 24 2.5 24H4.5C5.878 24 7 22.879 7 21.5V20.5C7 19.121 5.878 18 4.5 18ZM5 21.5C5 21.775 4.776 22 4.5 22H2.5C2.224 22 2 21.775 2 21.5V20.5C2 20.225 2.224 20 2.5 20H4.5C4.776 20 5 20.225 5 20.5V21.5ZM2.5 15.5V14.5C2.5 12.57 4.07 11 6 11H11V8.5C11 7.947 11.448 7.5 12 7.5C12.552 7.5 13 7.947 13 8.5V11H18C19.93 11 21.5 12.57 21.5 14.5V15.5C21.5 16.053 21.053 16.5 20.5 16.5C19.947 16.5 19.5 16.053 19.5 15.5V14.5C19.5 13.673 18.827 13 18 13H13V15.5C13 16.053 12.552 16.5 12 16.5C11.448 16.5 11 16.053 11 15.5V13H6C5.173 13 4.5 13.673 4.5 14.5V15.5C4.5 16.053 4.052 16.5 3.5 16.5C2.948 16.5 2.5 16.053 2.5 15.5Z" fill="#7C7C7C"/>
</g>
<defs>
<clipPath id="clip0_209_1079">
<rect width="24" height="24" fill="white"/>
</clipPath>
</defs>
</svg>
