<svg width="24" height="24" viewBox="0 0 24 24" fill="none" xmlns="http://www.w3.org/2000/svg">
<g clip-path="url(#clip0_24_841)">
<path d="M21 1H19C17.346 1 16 2.346 16 4H8C8 2.346 6.654 1 5 1H3C1.346 1 0 2.346 0 4V6C0 7.654 1.346 9 3 9H5C5.297 9 5.583 8.956 5.854 8.875L10.371 16.555C10.134 16.984 9.999 17.476 9.999 18V20C9.999 21.654 11.345 23 12.999 23H14.999C16.653 23 17.999 21.654 17.999 20V18C17.999 16.346 16.653 15 14.999 15H12.999C12.611 15 12.241 15.075 11.9 15.209L7.478 7.689C7.807 7.207 8 6.626 8 6H16C16 7.654 17.346 9 19 9H21C22.654 9 24 7.654 24 6V4C24 2.346 22.654 1 21 1ZM3 7C2.448 7 2 6.551 2 6V4C2 3.449 2.448 3 3 3H5C5.552 3 6 3.449 6 4V6C6 6.551 5.552 7 5 7H3ZM15 17C15.552 17 16 17.448 16 18V20C16 20.552 15.552 21 15 21H13C12.448 21 12 20.552 12 20V18C12 17.448 12.448 17 13 17H15ZM22 6C22 6.551 21.552 7 21 7H19C18.448 7 18 6.551 18 6V4C18 3.449 18.448 3 19 3H21C21.552 3 22 3.449 22 4V6Z" fill="#7C7C7C"/>
</g>
<defs>
<clipPath id="clip0_24_841">
<rect width="24" height="24" fill="white"/>
</clipPath>
</defs>
</svg>
