<svg width="550" height="1086" viewBox="0 0 550 1086" fill="none" xmlns="http://www.w3.org/2000/svg">
<g clip-path="url(#clip0_745_1194)">
<path d="M0 17C0 7.61117 7.61116 0 17 0H533C542.389 0 550 7.61116 550 17V1069C550 1078.39 542.389 1086 533 1086H17C7.61114 1086 0 1078.39 0 1069V17Z" fill="#0F39A0"/>
<path d="M694 1108.5C694 1256.79 573.788 1377 425.5 1377C277.212 1377 157 1256.79 157 1108.5C157 960.212 277.212 840 425.5 840C573.788 840 694 960.212 694 1108.5ZM242.732 1108.5C242.732 1209.44 324.56 1291.27 425.5 1291.27C526.44 1291.27 608.268 1209.44 608.268 1108.5C608.268 1007.56 526.44 925.732 425.5 925.732C324.56 925.732 242.732 1007.56 242.732 1108.5Z" fill="white" fill-opacity="0.2"/>
<path d="M282 -49.5C282 98.7885 161.788 219 13.5 219C-134.788 219 -255 98.7885 -255 -49.5C-255 -197.788 -134.788 -318 13.5 -318C161.788 -318 282 -197.788 282 -49.5ZM-169.268 -49.5C-169.268 51.44 -87.44 133.268 13.5 133.268C114.44 133.268 196.268 51.44 196.268 -49.5C196.268 -150.44 114.44 -232.268 13.5 -232.268C-87.44 -232.268 -169.268 -150.44 -169.268 -49.5Z" fill="white" fill-opacity="0.2"/>
</g>
<defs>
<clipPath id="clip0_745_1194">
<path d="M0 17C0 7.61117 7.61116 0 17 0H533C542.389 0 550 7.61116 550 17V1069C550 1078.39 542.389 1086 533 1086H17C7.61114 1086 0 1078.39 0 1069V17Z" fill="white"/>
</clipPath>
</defs>
</svg>
