<svg width="1120" height="800" viewBox="0 0 1120 800" fill="none" xmlns="http://www.w3.org/2000/svg">
<g clip-path="url(#clip0_731_933)">
<rect width="1120" height="800" rx="17" fill="#0F39A0"/>
<path d="M-93.3469 202.084C-75.6828 235.807 -51.0493 265.388 -21.0809 288.865C8.88749 312.342 43.5057 329.178 80.4769 338.255C117.448 347.333 155.927 348.445 193.361 341.517C230.794 334.589 266.327 319.78 297.601 298.073C328.874 276.366 355.175 248.256 374.757 215.609C394.338 182.962 406.754 146.524 411.179 108.713C415.605 70.9018 411.939 32.5818 400.426 -3.7046C388.912 -39.991 369.814 -73.4143 344.398 -101.757L280.57 -44.5201C297.871 -25.2274 310.871 -2.47615 318.709 22.224C326.546 46.9242 329.041 73.0086 326.029 98.7467C323.016 124.485 314.565 149.288 301.236 171.511C287.906 193.734 270.004 212.868 248.716 227.644C227.427 242.42 203.24 252.501 177.759 257.216C152.278 261.932 126.086 261.175 100.919 254.996C75.7531 248.817 52.1885 237.357 31.789 221.376C11.3895 205.396 -5.37853 185.26 -17.4025 162.304L-93.3469 202.084Z" fill="white" fill-opacity="0.2"/>
<path d="M1192.19 580.028C1154.76 525.232 1098.35 486.243 1033.86 470.583C969.368 454.922 901.363 463.701 842.963 495.224C784.562 526.748 739.906 578.782 717.609 641.289C695.311 703.796 696.953 772.346 722.217 833.714L801.494 801.077C784.297 759.304 783.179 712.642 798.357 670.094C813.535 627.545 843.932 592.125 883.685 570.667C923.438 549.209 969.73 543.234 1013.63 553.894C1057.53 564.553 1095.92 591.093 1121.41 628.393L1192.19 580.028Z" fill="white" fill-opacity="0.2"/>
<rect x="955" y="26" width="8.13366" height="8.13366" fill="#FFFDFD" fill-opacity="0.2"/>
<rect x="973.979" y="26" width="8.13366" height="8.13366" fill="#FFFDFD" fill-opacity="0.2"/>
<rect x="992.957" y="26" width="8.13366" height="8.13366" fill="#FFFDFD" fill-opacity="0.2"/>
<rect x="1011.94" y="26" width="8.13366" height="8.13366" fill="#FFFDFD" fill-opacity="0.2"/>
<rect x="1030.91" y="26" width="8.13366" height="8.13366" fill="#FFFDFD" fill-opacity="0.2"/>
<rect x="1049.89" y="26" width="8.13366" height="8.13366" fill="#FFFDFD" fill-opacity="0.2"/>
<rect x="1068.87" y="26" width="8.13366" height="8.13366" fill="#FFFDFD" fill-opacity="0.2"/>
<rect x="1087.85" y="26" width="8.13366" height="8.13366" fill="#FFFDFD" fill-opacity="0.2"/>
<rect x="955" y="82.9355" width="8.13366" height="8.13366" fill="#FFFDFD" fill-opacity="0.2"/>
<rect x="973.979" y="82.9355" width="8.13366" height="8.13366" fill="#FFFDFD" fill-opacity="0.2"/>
<rect x="992.957" y="82.9355" width="8.13366" height="8.13366" fill="#FFFDFD" fill-opacity="0.2"/>
<rect x="1011.94" y="82.9355" width="8.13366" height="8.13366" fill="#FFFDFD" fill-opacity="0.2"/>
<rect x="1030.91" y="82.9355" width="8.13366" height="8.13366" fill="#FFFDFD" fill-opacity="0.2"/>
<rect x="1049.89" y="82.9355" width="8.13366" height="8.13366" fill="#FFFDFD" fill-opacity="0.2"/>
<rect x="1068.87" y="82.9355" width="8.13366" height="8.13366" fill="#FFFDFD" fill-opacity="0.2"/>
<rect x="1087.85" y="82.9355" width="8.13366" height="8.13366" fill="#FFFDFD" fill-opacity="0.2"/>
<rect x="955" y="44.9785" width="8.13366" height="8.13366" fill="#FFFDFD" fill-opacity="0.2"/>
<rect x="973.979" y="44.9785" width="8.13366" height="8.13366" fill="#FFFDFD" fill-opacity="0.2"/>
<rect x="992.957" y="44.9785" width="8.13366" height="8.13366" fill="#FFFDFD" fill-opacity="0.2"/>
<rect x="1011.94" y="44.9785" width="8.13366" height="8.13366" fill="#FFFDFD" fill-opacity="0.2"/>
<rect x="1030.91" y="44.9785" width="8.13366" height="8.13366" fill="#FFFDFD" fill-opacity="0.2"/>
<rect x="1049.89" y="44.9785" width="8.13366" height="8.13366" fill="#FFFDFD" fill-opacity="0.2"/>
<rect x="1068.87" y="44.9785" width="8.13366" height="8.13366" fill="#FFFDFD" fill-opacity="0.2"/>
<rect x="1087.85" y="44.9785" width="8.13366" height="8.13366" fill="#FFFDFD" fill-opacity="0.2"/>
<rect x="955" y="101.914" width="8.13366" height="8.13366" fill="#FFFDFD" fill-opacity="0.2"/>
<rect x="973.979" y="101.914" width="8.13366" height="8.13366" fill="#FFFDFD" fill-opacity="0.2"/>
<rect x="992.957" y="101.914" width="8.13366" height="8.13366" fill="#FFFDFD" fill-opacity="0.2"/>
<rect x="1011.94" y="101.914" width="8.13366" height="8.13366" fill="#FFFDFD" fill-opacity="0.2"/>
<rect x="1030.91" y="101.914" width="8.13366" height="8.13366" fill="#FFFDFD" fill-opacity="0.2"/>
<rect x="1049.89" y="101.914" width="8.13366" height="8.13366" fill="#FFFDFD" fill-opacity="0.2"/>
<rect x="1068.87" y="101.914" width="8.13366" height="8.13366" fill="#FFFDFD" fill-opacity="0.2"/>
<rect x="1087.85" y="101.914" width="8.13366" height="8.13366" fill="#FFFDFD" fill-opacity="0.2"/>
<rect x="955" y="63.957" width="8.13366" height="8.13366" fill="#FFFDFD" fill-opacity="0.2"/>
<rect x="973.979" y="63.957" width="8.13366" height="8.13366" fill="#FFFDFD" fill-opacity="0.2"/>
<rect x="992.957" y="63.957" width="8.13366" height="8.13366" fill="#FFFDFD" fill-opacity="0.2"/>
<rect x="1011.94" y="63.957" width="8.13366" height="8.13366" fill="#FFFDFD" fill-opacity="0.2"/>
<rect x="1030.91" y="63.957" width="8.13366" height="8.13366" fill="#FFFDFD" fill-opacity="0.2"/>
<rect x="1049.89" y="63.957" width="8.13366" height="8.13366" fill="#FFFDFD" fill-opacity="0.2"/>
<rect x="1068.87" y="63.957" width="8.13366" height="8.13366" fill="#FFFDFD" fill-opacity="0.2"/>
<rect x="1087.85" y="63.957" width="8.13366" height="8.13366" fill="#FFFDFD" fill-opacity="0.2"/>
<rect x="955" y="120.893" width="8.13366" height="8.13366" fill="#FFFDFD" fill-opacity="0.2"/>
<rect x="973.979" y="120.893" width="8.13366" height="8.13366" fill="#FFFDFD" fill-opacity="0.2"/>
<rect x="992.957" y="120.893" width="8.13366" height="8.13366" fill="#FFFDFD" fill-opacity="0.2"/>
<rect x="1011.94" y="120.893" width="8.13366" height="8.13366" fill="#FFFDFD" fill-opacity="0.2"/>
<rect x="1030.91" y="120.893" width="8.13366" height="8.13366" fill="#FFFDFD" fill-opacity="0.2"/>
<rect x="1049.89" y="120.893" width="8.13366" height="8.13366" fill="#FFFDFD" fill-opacity="0.2"/>
<rect x="1068.87" y="120.893" width="8.13366" height="8.13366" fill="#FFFDFD" fill-opacity="0.2"/>
<rect x="1087.85" y="120.893" width="8.13366" height="8.13366" fill="#FFFDFD" fill-opacity="0.2"/>
</g>
<defs>
<clipPath id="clip0_731_933">
<rect width="1120" height="800" rx="17" fill="white"/>
</clipPath>
</defs>
</svg>
