<svg width="24" height="24" viewBox="0 0 24 24" fill="none" xmlns="http://www.w3.org/2000/svg">
<g clip-path="url(#clip0_273_737)">
<path d="M19.4999 14C20.8809 14 21.9999 15.119 21.9999 16.5C21.9999 17.881 20.8809 19 19.4999 19C18.1189 19 16.9999 17.881 16.9999 16.5C16.9999 15.119 18.1189 14 19.4999 14ZM9.49988 16.5C9.49988 17.881 10.6189 19 11.9999 19C13.3809 19 14.4999 17.881 14.4999 16.5C14.4999 15.119 13.3809 14 11.9999 14C10.6189 14 9.49988 15.119 9.49988 16.5ZM4.49988 14C3.11888 14 1.99988 15.119 1.99988 16.5C1.99988 17.881 3.11888 19 4.49988 19C5.88088 19 6.99988 17.881 6.99988 16.5C6.99988 15.119 5.88088 14 4.49988 14ZM19.4999 20C18.1179 20 16.8439 20.53 15.9369 21.433C14.8979 20.521 13.5019 20 11.9999 20C10.4979 20 9.10188 20.521 8.06288 21.433C7.15588 20.53 5.88188 20 4.49988 20C2.62488 20 0.944879 20.97 0.115879 22.531C-0.143121 23.019 0.0428787 23.624 0.530879 23.884C1.01888 24.142 1.62488 23.957 1.88388 23.469C2.35688 22.576 3.38388 22 4.49988 22C5.61588 22 6.64388 22.576 7.11588 23.469C7.12488 23.486 7.38588 24 8.00088 24C8.61588 24 8.81988 23.571 8.82788 23.56C9.47788 22.598 10.6939 22 11.9999 22C13.3059 22 14.5209 22.598 15.1719 23.56C15.1819 23.575 15.4249 24 16.0009 24C16.5769 24 16.8759 23.483 16.8839 23.469C17.3569 22.576 18.3839 22 19.4999 22C20.6159 22 21.6439 22.576 22.1159 23.469C22.2959 23.808 22.6419 24 23.0009 24C23.1589 24 23.3189 23.963 23.4689 23.884C23.9569 23.624 24.1429 23.02 23.8839 22.531C23.0549 20.969 21.3749 20 19.4999 20ZM6.73488 8.379L7.71788 7.813C7.58888 7.395 7.49988 6.96 7.49988 6.5C7.49988 6.04 7.58888 5.605 7.71788 5.187L6.73488 4.621C6.25588 4.346 6.09088 3.734 6.36788 3.256C6.64188 2.777 7.25488 2.611 7.73288 2.889L8.70988 3.452C9.31488 2.8 10.1029 2.326 10.9989 2.121V1C10.9989 0.447 11.4459 0 11.9989 0C12.5519 0 12.9989 0.447 12.9989 1V2.121C13.8949 2.326 14.6839 2.799 15.2879 3.452L16.2649 2.889C16.7439 2.612 17.3549 2.778 17.6299 3.256C17.9059 3.735 17.7409 4.346 17.2629 4.621L16.2799 5.187C16.4089 5.605 16.4979 6.04 16.4979 6.5C16.4979 6.96 16.4089 7.395 16.2799 7.813L17.2629 8.379C17.7419 8.654 17.9069 9.266 17.6299 9.744C17.4449 10.065 17.1089 10.245 16.7629 10.245C16.5939 10.245 16.4219 10.202 16.2649 10.111L15.2879 9.548C14.6829 10.2 13.8949 10.674 12.9989 10.879V12C12.9989 12.553 12.5519 13 11.9989 13C11.4459 13 10.9989 12.553 10.9989 12V10.879C10.1029 10.674 9.31388 10.201 8.70988 9.548L7.73288 10.111C7.57588 10.202 7.40388 10.245 7.23488 10.245C6.88888 10.245 6.55188 10.065 6.36788 9.744C6.09188 9.265 6.25688 8.654 6.73488 8.379ZM9.49988 6.5C9.49988 7.879 10.6209 9 11.9999 9C13.3789 9 14.4999 7.879 14.4999 6.5C14.4999 5.121 13.3789 4 11.9999 4C10.6209 4 9.49988 5.121 9.49988 6.5ZM0.999879 14C1.55288 14 1.99988 13.553 1.99988 13V10C1.99988 8.897 2.89688 8 3.99988 8C4.55288 8 4.99988 7.553 4.99988 7C4.99988 6.447 4.55288 6 3.99988 6C1.79388 6 -0.000121293 7.794 -0.000121293 10V13C-0.000121293 13.553 0.446879 14 0.999879 14ZM19.9999 6C19.4469 6 18.9999 6.447 18.9999 7C18.9999 7.553 19.4469 8 19.9999 8C21.1029 8 21.9999 8.897 21.9999 10V13C21.9999 13.553 22.4469 14 22.9999 14C23.5529 14 23.9999 13.553 23.9999 13V10C23.9999 7.794 22.2059 6 19.9999 6Z" fill="#7C7C7C"/>
</g>
<defs>
<clipPath id="clip0_273_737">
<rect width="24" height="24" fill="white"/>
</clipPath>
</defs>
</svg>
