<svg width="24" height="24" viewBox="0 0 24 24" fill="none" xmlns="http://www.w3.org/2000/svg">
<g clip-path="url(#clip0_24_851)">
<path d="M5.49988 11C7.42988 11 8.99988 9.43 8.99988 7.5C8.99988 5.57 7.42988 4 5.49988 4C3.56988 4 1.99988 5.57 1.99988 7.5C1.99988 9.43 3.56988 11 5.49988 11ZM5.49988 6C6.32688 6 6.99988 6.673 6.99988 7.5C6.99988 8.327 6.32688 9 5.49988 9C4.67288 9 3.99988 8.327 3.99988 7.5C3.99988 6.673 4.67288 6 5.49988 6ZM8.83088 14.314C8.52188 14.773 7.90188 14.896 7.44288 14.588C6.86788 14.202 6.19588 13.999 5.49988 13.999C3.71288 13.999 2.21788 15.336 2.02088 17.109C1.96388 17.62 1.53088 17.999 1.02788 17.999C0.991879 17.999 0.954879 17.997 0.916879 17.993C0.367879 17.932 -0.0271212 17.437 0.0328788 16.889C0.341879 14.102 2.69188 11.999 5.49988 11.999C6.59388 11.999 7.64988 12.319 8.55688 12.926C9.01588 13.234 9.13888 13.855 8.83088 14.314ZM15.4999 7C17.4299 7 18.9999 5.43 18.9999 3.5C18.9999 1.57 17.4299 0 15.4999 0C13.5699 0 11.9999 1.57 11.9999 3.5C11.9999 5.43 13.5699 7 15.4999 7ZM15.4999 2C16.3269 2 16.9999 2.673 16.9999 3.5C16.9999 4.327 16.3269 5 15.4999 5C14.6729 5 13.9999 4.327 13.9999 3.5C13.9999 2.673 14.6729 2 15.4999 2ZM16.9999 10C13.1409 10 9.99988 13.141 9.99988 17C9.99988 20.859 13.1409 24 16.9999 24C20.8589 24 23.9999 20.859 23.9999 17C23.9999 13.141 20.8589 10 16.9999 10ZM16.9999 22C14.2429 22 11.9999 19.757 11.9999 17C11.9999 14.243 14.2429 12 16.9999 12C19.7569 12 21.9999 14.243 21.9999 17C21.9999 19.757 19.7569 22 16.9999 22ZM20.2219 15.788C20.6039 16.186 20.5909 16.819 20.1929 17.202L17.9799 19.326C17.5279 19.772 16.9279 19.997 16.3269 19.997C15.7259 19.997 15.1239 19.772 14.6639 19.323L13.5319 18.214C13.1369 17.827 13.1319 17.194 13.5179 16.8C13.9039 16.405 14.5369 16.399 14.9319 16.786L16.0629 17.894C16.2069 18.036 16.4419 18.033 16.5849 17.892L18.8079 15.758C19.2049 15.377 19.8389 15.388 20.2219 15.787V15.788Z" fill="#7C7C7C"/>
</g>
<defs>
<clipPath id="clip0_24_851">
<rect width="24" height="24" fill="white"/>
</clipPath>
</defs>
</svg>
